<svg version="1.0" xmlns="http://www.w3.org/2000/svg" width="1024" height="1024" viewBox="0 0 768 768"><path d="M229 33.1c-.8.4-5.5 2.8-10.5 5.2-15.4 7.5-18.6 9.5-36 22.9-11.6 8.9-24.8 25.7-31.2 39.6-1.9 4.3-3.8 8.4-4.3 9.2-.4.9-1.1 3.1-1.6 5-.4 1.9-.9 3.8-1 4.2-.1.5-.3 1-.4 1.3-.4.8-.6 1.8-1.4 6.5-.4 2.5-.9 5.4-1.1 6.5-.2 1.1-.4 4.3-.4 7.2l-.1 5.2-10.3 10.3c-5.6 5.7-11.1 11.5-12.2 12.9-9.7 12.6-14.9 22.8-18.4 36.4-1.8 6.9-2.2 9.8-2.8 19l-.6 9-6.1 6.5c-16.4 17.5-28.1 41.5-31.2 63.5-.3 2.2-.7 5.1-1 6.5-.5 3.1-.6 20.8 0 23.5.2 1.1.7 4.5 1 7.6.6 5.1.5 5.6-1.6 6.8-1.3.7-3.8 3.2-5.7 5.6-10.4 13.1-9.7 30.9 1.6 42.8 5.2 5.5 12.4 8.9 21.8 10.2 1.1.1 2.2.3 2.5.4.3 0 .5 13.9.5 30.9.1 27.1.3 31.1 1.8 33.9 2.4 4.6 6.4 8.3 11.1 10.4 4.4 1.9 7.2 2.1 20 1.9 2.6-.1 5 .1 5.2.2.2.2.6 2.4.8 4.9.5 4 1.1 9.6 2.1 17.4.2 1.6.6 5.7 1 9s.8 7.1 1 8.5c.3 2.2 1.1 8.5 2 17 1 8.9 1.6 13.4 2 16.7.3 2.1.7 6.3 1 9.3.3 3 .8 7.3 1.2 9.5.3 2.2.7 5.8.9 8 .2 2.2.5 5.3.7 7 .3 1.6.8 5.9 1.2 9.5.3 3.6.8 7.6 1 9 .5 3.1 1.4 11.2 2 16.5.2 2.2.6 5.8.9 8 .3 2.2.8 6.5 1.1 9.5.3 3 .8 6.6 1 8 .2 1.4.6 4.7.9 7.5 1 9.1 1.8 17 2.2 19.5.1 1.4.5 4.7.8 7.5.3 2.7.8 6.8 1.1 9 .2 2.2.7 6.2 1 9 2.3 20.5 2.6 21.8 8.3 27.7l3.6 3.8h137.4l3.9-3.9c4.3-4.3 5.9-8.4 6.8-17.6.3-3.3 1-8.4 1.5-11.3.5-2.9.9-5.6.8-6-.2-.7.9-10.8 1.7-16.2.2-1.4.7-5 1-8 .3-3 .7-7.1 1-9 .3-1.9.7-5.8 1-8.5.3-2.8.8-6.8 1.1-9 .2-2.2.7-6 .9-8.5.6-5.1 1.5-12.3 2-16 .2-1.4.6-5.4 1-9 .4-3.6.9-7.6 1-9 .2-1.4.6-5.2 1-8.5.3-3.3.8-7.1 1-8.5.2-1.4.7-5.4 1-9 .4-3.6.8-7.2 1-8 .2-.8.6-4.9 1-9s.9-8.4 1.1-9.5c.2-1.1.6-4.5.9-7.5.3-3 .8-7.1 1.1-9 .3-1.9.7-5.1.9-7 1.3-13.2 1.6-15.8 1.9-17.5.2-1.1.7-5.2 1.2-9 .4-3.9.8-7.5.9-8 .1-.6.3-2.9.3-5.2.2-4.2.2-4.2 4-4.1 2 0 4 0 4.5-.1.4-.1 3.5-.2 6.9-.3 7.4 0 11.4-1.3 16.3-5.2 4.2-3.3 6.2-6.9 7.1-12.3.9-5.2.9-37.7 0-39.1-.4-.7-.4-1.2.1-1.2.4 0 .8-4.4.8-9.7v-9.7l4-.4c3.9-.3 14.5-4.8 17.5-7.4 3.5-3 8.8-10.6 10-14.2 1.2-3.6 1.7-15.2.8-18.6-.9-3.8-3.4-8.8-6-12l-2.7-3.5 2.9-9.3c1.6-5 3.1-10.7 3.4-12.5.3-1.7.8-4.3 1-5.6 3.2-15.2 2.5-36-1.6-50.6-.6-2.2-1.3-4.8-1.5-5.8-1.1-6.2-11.5-26.8-17.6-34.9-2.3-3.1-5.3-7.1-6.7-8.9-3.7-5-23.5-24.8-31-31.1-6.7-5.6-22.8-17.6-38.5-28.8-4.9-3.5-9.6-7-10.3-7.7-.7-.7-2.6-2-4.2-3-1.7-.9-3-2.1-3-2.5 0-.4-.7-.8-1.5-.8-.7 0-1.8-.6-2.2-1.3-.4-.7-2.1-2.1-3.6-3-6.3-4.1-22.7-22.5-22.7-25.6 0-.5-.4-1.1-.8-1.3-1.9-.7-9.6-19.5-10.8-26.3-.3-1.6-.9-4.8-1.4-7-1.3-6-.9-25.1.7-32 .8-3.3 1.6-6.9 1.9-8 .6-2.8-1.3-7.9-3.7-10.1-2.1-1.9-9.4-2.7-11.9-1.3zm-8.4 40.2c.1 6.7.6 14.7 1.3 17.8.6 3 1.4 6.9 1.7 8.5 1.3 7.1 13.8 34.2 17.4 37.4.3.3 2.3 2.7 4.4 5.4 4.2 5.2 17.7 18.6 18.7 18.6.4 0 2.2 1.3 4 3 1.9 1.6 3.7 3 4.1 3 .4 0 1.3.6 2 1.3.7.7 5.8 4.4 11.3 8.2 10.8 7.4 37.5 27.3 44 32.7 6 5 21.6 20.7 25.5 25.7 1.9 2.4 4.1 4.9 4.8 5.6.6.8 1.2 1.6 1.2 1.8 0 .3 1.6 2.9 3.6 5.8 6.7 9.9 12.9 25.4 15.1 37.9.9 5.5 1 26.9.1 33-.6 3.8-2.5 11.4-5.4 20.8l-.7 2.3-38.6-.5c-21.2-.3-40.2-.7-42.1-1-1.9-.2-6-.7-9-1-13.4-1.4-20.4-2.3-30.5-4.2-4.4-.8-9.3-1.7-11-2-1.6-.3-7.3-1.7-12.5-3-5.2-1.4-10.6-2.7-12-3-1.3-.3-3-1-3.7-1.6-.7-.6-1.3-.8-1.3-.4 0 .7-8.3-2.2-21.5-7.7-31.6-13-54.5-32.5-65.4-55.9-5.3-11-6.9-19-6.7-32.4.1-6.5.5-13.6.9-15.7 1.3-6.7 8.4-23.6 10.8-25.7.3-.3 1-1.2 1.5-2.2 1.5-2.8 10.6-12.8 11.6-12.8.5 0 .7.4.4.8-.2.4.1 2.1.9 3.7 5.4 12 7 15.3 10 19.9 6.1 9.5 16.8 20 31 30.4 6.3 4.6 28.7 16.4 38.5 20.2 3 1.2 6.9 2.7 8.5 3.5 1.7.7 5.7 2.3 9 3.5 3.3 1.3 6.9 2.6 8 3.1 7.9 3.3 14.2 5.4 15.3 5.3.6-.1 1.9-.2 2.7-.3 2.7-.2 7.4-5.5 7.9-8.8.8-5.8-2.6-9.2-13.4-13.5-8.5-3.3-11-4.2-14.5-5.3-.5-.2-3.9-1.5-7.5-3-40.6-16.8-61.1-31.9-71.8-53-2.7-5.5-5.3-12.7-5.8-16.5-.1-.8-.5-3.1-.9-5-.9-4.4-1-15.9-.2-22.6 1.4-10.7 7.9-28.9 12.9-35.9 6.8-9.4 13.6-16.9 20-21.7 2-1.5 4.2-3.4 5-4.1C203 71 218.1 61.3 220 61.1c.3-.1.5 5.4.6 12.2zM104.5 266.5c1.6 4.1 3.3 7.5 3.7 7.5.5 0 .8.7.8 1.5 0 .9.4 2.1 1 2.8.5.7 3.6 4.8 6.9 9.2 9.3 12.6 24.3 26.5 35.9 33.2 2.6 1.5 4.9 3 5.2 3.3 1.3 1.4 15.3 8.5 26 13.2 6.2 2.8 16.4 6.5 22.5 8.3 3.3.9 6.9 2 8 2.5 2.1.8 11.5 3.1 15 3.6 1.1.2 5 1 8.6 1.8 8.4 1.9 11.3 2.4 16.9 3.2 2.5.3 5.2.7 6 .9.8.2 4.2.7 7.5 1 3.3.3 7.6.8 9.5 1.1 7.2 1.1 15.5 1.4 53.5 1.9 21.5.3 39.9.8 41.1 1 7.2 1.5 10.9 12 6.3 17.9-3.7 4.7-5.2 5-25.9 5.2-10.7.1-20.3.2-21.3.3-1 .1-3.2 1.4-4.8 3-4.1 4.1-4.1 10.1 0 14.2 3 2.9 3.5 3 14.1 3.2l5.5.1.5 21.6c.3 11.8.3 24.5.2 28.2l-.4 6.8H99v-9.5c-.1-5.2-.1-15.1-.1-22s0-15.3.1-18.8v-6.3l95.3.1c52.3 0 96.4-.3 97.8-.8 9-2.8 9.8-14.4 1.4-19-1.4-.8-33.5-1.1-111.6-1.2H72.4l-3.1-2.5c-6.9-5.6-5.7-15.6 2.4-19.9 1.3-.7 7.8-1.1 16.7-1.1 9.1 0 14.6-.4 14.6-1s.6-1 1.3-1c.8 0 2.2-1.5 3.2-3.3 2.5-4.7 1.4-10-2.6-13-2.7-1.9-4.3-2.2-13.5-2.3-5.7 0-10.6-.3-10.9-.6-1.7-1.6-2.4-20.5-1.2-30.3 1.3-10.8 4.3-21.2 9-31.5 2.3-5 11.8-20 12.7-20 .3 0 1.8 3.4 3.5 7.5zM164.2 484c4.9-.1 5.4-.1 14.3-.1 8.4 0 8.4 0 18.9.2l9 .1-15.2 15.1-15.3 15-15.2-15.2-15.2-15.3 5.8.4c3.2.3 6 .1 6.3-.4.3-.4.9-.6 1.4-.3.5.3 2.9.5 5.2.5zm96 0c4.9-.1 5.4-.1 14.3-.1 22.5 0 25.6.3 24.3 1.8-.8 1-18.4 18.5-28.3 28.1-.5.5-29.5-28-29.5-28.9 0-.4 2.9-.7 6.5-.6 3.6.1 6.5-.2 6.5-.6 0-.5.4-.6 1-.2.5.3 2.9.5 5.2.5zm-19.7 30.2 14.9 14.7-16.1 15.9-16 15.9-16.2-16-16.2-16 15.8-15.7c12.7-12.5 16.1-15.4 17.3-14.6.8.6 8.2 7.7 16.5 15.8zm64.1 1c-.3 3.5-.8 7.4-1 8.8-.3 1.4-.7 5.4-1.1 9-.9 9.3-1.1 10.5-2.3 10.3-.6-.1-4.2-3.5-8.1-7.5l-7-7.3 9.7-9.6c5.3-5.4 9.8-9.8 10-9.8.2-.1.1 2.7-.2 6.1zm-112 44.7 15.6 15.4-16 16-16 16-13.5-13.4c-12.7-12.6-13.6-13.7-14.1-17.9l-.5-4.5 13.7-13.7c7.5-7.6 14-13.7 14.4-13.5.4.1 7.7 7.1 16.4 15.6zm92-2.7 13.6 13.3-.5 4.7c-.4 5.4-1.6 6.8-17.2 22l-10 9.7-15.8-15.5c-8.6-8.5-15.7-15.8-15.7-16.2 0-.9 30.2-31.1 31.3-31.1.4-.1 6.8 5.9 14.3 13.1zM239.2 606l16.3 15.9-16.1 15.9-16.1 15.9-16.2-15.8-16.2-15.8 15.8-15.9c8.7-8.8 15.9-16 16.1-16.1.1 0 7.5 7.1 16.4 15.9zm-81.5 12.4 3.6 3.4-3.2 3.1c-1.7 1.7-3.3 3.1-3.4 3.1-.2 0-.3-1-.3-2.3-.1-1.2-.4-4.1-.7-6.5-.4-2.3-.4-4.2-.1-4.2.3 0 2.1 1.5 4.1 3.4zm134.7 1.8c-.3 2.9-.6 5.9-.7 6.6 0 .7-1.3.1-3.1-1.5-1.7-1.6-3.2-2.9-3.4-2.9-.5-.2 6.3-7.2 7.1-7.3.4-.1.5 2.3.1 5.1zm-97.9 34.7c9.6 9.6 17.5 17.8 17.5 18.3 0 .4-11.7.8-26 .8h-26l-.1-2.3c0-1.2-.2-2.9-.3-3.7-.2-.8-.6-4.2-1-7.5l-.6-5.9 8.7-8.8c4.8-4.9 9.1-8.7 9.5-8.6.5.2 8.7 8.1 18.3 17.7zm85.4-8.8c5 5 8.8 9.5 8.5 10-.3.5-.7 3.7-1 7.1-.3 3.5-.6 7.2-.8 8.3-.3 1.9-1.1 2-25.7 2.1-14 0-25.9-.1-26.4-.3-.6-.2 5.2-6.5 12.8-14.1 7.7-7.5 15.8-15.6 18.1-17.9 2.3-2.3 4.4-4.3 4.7-4.3.4 0 4.8 4.1 9.8 9.1zm3.6 50.9c0 1.4-.2 2.9-.4 3.4s-.6 3.2-.8 6c-.2 2.8-.5 6-.7 7.1-.2 1.1-.4 2.6-.5 3.2-.1 1-12.4 1.3-58.1 1.3h-58l-.2-3.3c0-1.7-.3-4.3-.5-5.7-.2-1.4-.6-5.2-.9-8.5l-.6-6H283.5v2.5zM451.7 547.6c-.1.2-3.6.6-7.7.9-4.1.3-8.2.8-9 1-.8.2-3.5.7-6 1-21.9 3.1-48.9 13.4-62.5 23.8-5.1 3.9-13.2 12-17.1 17.2-3 3.8-9.5 15.7-11 20-7.3 20.6-6.3 46.8 2.4 63.5 5.7 11.1 13.5 19.5 25.4 27.6 11 7.5 24.6 14 35.8 17 1.4.4 16.9 4.1 20 4.8 3.1.7 8.6 1.6 13 2.1 13.5 1.5 19.1 1.8 35.5 1.8 21.3.1 31.9-.7 46-3.3 9.3-1.8 10-1.9 12.5-2.5 1.4-.3 3.4-.8 4.5-1 1.1-.3 4-1.1 6.5-1.8l4.5-1.3V713c.1-3-.3-6.5-.7-7.8-.4-1.2-.4-2.2 0-2.2s.5-2.7.2-6c-.7-7.3.1-9.1 2.4-5.5 4.4 6.7 16.9 16.6 28.6 22.5 8.3 4.2 32.8 11.7 39 11.8.8.1 2.9.3 4.5.6 6.5 1.2 16.7 1.7 32.5 1.8 20.3.1 26.8-.6 48.5-4.7 13.8-2.6 33.6-10.6 39.7-15.9 2.4-2.1 2.7-3.2 3.3-12.2.4-5.5.9-12.2 1.1-14.9.2-2.8.6-7.6.8-10.8.3-3.2.9-6.4 1.5-7 1-1.3 2-13.6 2.6-33.7.3-11.3.1-14.7-1.6-21-3.3-12.1-10.3-24.5-18.1-32-7.4-7-9.6-9-10.3-9-.4 0-1.9-.9-3.3-1.9-5.9-4.1-20.3-10.4-29.2-12.7-14.8-3.8-24-4.9-40-4.7-11 0-23.8.9-27 1.8-.8.3-3.3.7-5.5 1.1-2.2.3-4.3.8-4.6 1-.4.2-2.4.6-4.5 1-5.7.9-21.3 6.9-28.5 11-7.7 4.3-15.9 10.3-15.9 11.5 0 .5-.5.9-1 .9-.6 0-2.9 1.9-5.1 4.2l-4 4.3.6-8.5c.4-4.7.8-10.2.9-12.2.2-3.7-.5-6.1-1.8-5.8-.3.1-5.7-1-11.9-2.4-11.2-2.6-14.2-3.2-20.7-4.2-1.9-.2-4.8-.7-6.4-1-1.5-.4-4.9-.7-7.5-.9-2.5-.2-7.6-.6-11.1-1-6.1-.7-39.7-1.4-40.3-.9zm32.8 28.8c8 .5 18.4 1.5 21.4 2.1.9.1 4.1.6 7.1 1.1 3 .4 5.7.8 6 .9 1.9.2 2.6 1.9 2.3 5.2-.2 2.1-.5 5.6-.7 7.8-.2 3.8-.4 4-3.2 3.7-3.8-.3-27.6-1.4-28.9-1.3-.5 0-3.5.3-6.5.5-11.5.8-17.9 1.7-28.2 4.2-1 .2-2.6.6-3.6.8-5.5 1.2-15.8 7.3-20.7 12.2-12 12.1-13.3 31.1-3.3 46.9 6.6 10.4 23.6 18.9 41.8 21 5.4.6 26.1.6 33 0 4.7-.4 12.3-.7 13.5-.6 1 .1 1.4 14.5.4 15.5-.3.3-3 .8-6 1.2-2.9.3-5.6.8-6 1-1.1.6-21.8 1.7-31.9 1.7-21.3-.1-38.8-2.2-54.1-6.3-4.1-1.1-8.5-2.3-9.8-2.6-8.4-1.8-25.3-11.1-32.5-18-10.4-9.8-14.6-24.3-12.2-41.4.7-5 3.5-14.2 4.6-15 .3-.3 1.2-1.9 1.8-3.5 1.8-4.3 10.8-13.7 17.5-18.4 8.7-5.9 28.8-13.6 41.1-15.6 1.7-.3 5.6-1 8.6-1.5s8.4-1.2 11.9-1.4c3.5-.3 6.5-.7 6.6-.8.5-.4 20.7 0 30 .6zm174.6 0c15.2 1 32 6.5 42.3 13.6 5.4 3.7 11.3 9.8 12.9 13.2.6 1.6 1.5 2.8 1.8 2.8.5 0 2 4.2 3.7 10 .5 2 1 16.2.5 17.5-.2.8-23.1 1.2-30.9.6-.7-.1-1.1-2.4-1.2-5.9-.2-17.3-3-26.2-10.5-33.4-6.9-6.6-13.6-9.1-25.6-9.3-10.8-.3-17.2 1.4-24.5 6.4-6.9 4.7-14.7 15.5-16.2 22.2-.2 1.1-.6 2.9-.9 4.1-.3 1.3-.8 3.9-1.1 5.8-1.1 7.1-1.3 8-1.9 9-.3.5-1.5 1-2.6 1-2.2 0-2.2.2-1 4.4.5 1.7 1.5 5.1 2.1 7.6.7 2.5 1.7 5.8 2.2 7.5 6.6 20.1 25 32.5 51.8 35 10.7 1 23 .6 31.5-1.1 1.1-.2 3.4-.7 5-.9 3-.6 16.4-4.4 17.7-5.2.4-.2.7 1.5.6 3.7 0 3.4-.5 4.3-2.7 5.4-2.7 1.5-20.8 6.1-27.6 7.1-2.2.3-4.7.7-5.5 1-5.1 1.4-27 2-43.5 1.1-8-.4-20.7-1.9-22.5-2.6-.3-.1-.8-.2-1.2-.1-.4 0-4.8-1.3-9.8-3-19.9-6.5-28.3-12-35.5-23.4-5.5-8.5-7-14.4-6.9-27.5.1-6.3.4-12.9.7-14.5 1.4-6.7 1.6-7.6 2.4-8.8.4-.6.8-1.8.9-2.4.5-3 7.6-14.2 11.6-18.1 12.8-12.8 34.8-21.3 58.5-22.7 4.8-.3 8.8-.7 8.9-.8.4-.3 5.9-.1 16.5.7zm-145.6 49c10.3 1.2 18 3.1 17.8 4.3-.2.7-.3 5.3-.4 10.2-.1 9.6-.4 10-5.9 10.6-6.6.8-13.2 1.7-15.1 2.1-1.3.2-10.3.6-19.9.8-27.4.5-38.3-2.6-41.5-12-1.7-4.9-.3-7.9 4.4-10.3 6.6-3.4 12.3-4.7 23.1-5.7 3.6-.3 6.6-.7 6.7-.8.5-.5 25.5.2 30.8.8z"/></svg>