<?xml version="1.0" standalone="no"?>
<!DOCTYPE svg PUBLIC "-//W3C//DTD SVG 20010904//EN"
 "http://www.w3.org/TR/2001/REC-SVG-20010904/DTD/svg10.dtd">
<svg version="1.0" xmlns="http://www.w3.org/2000/svg"
 width="768.000000pt" height="768.000000pt" viewBox="0 0 768.000000 768.000000"
 preserveAspectRatio="xMidYMid meet">
<metadata>
Created by potrace 1.14, written by Peter Selinger 2001-2017
</metadata>
<g transform="translate(0.000000,768.000000) scale(0.100000,-0.100000)"
fill="#000000" stroke="none">
<path d="M2290 7349 c-8 -4 -55 -28 -105 -52 -154 -75 -186 -95 -360 -229
-116 -89 -248 -257 -312 -396 -19 -43 -38 -84 -43 -92 -4 -9 -11 -31 -16 -50
-4 -19 -9 -38 -10 -42 -1 -5 -3 -10 -4 -13 -4 -8 -6 -18 -14 -65 -4 -25 -9
-54 -11 -65 -2 -11 -4 -43 -4 -72 l-1 -52 -103 -103 c-56 -57 -111 -115 -122
-129 -97 -126 -149 -228 -184 -364 -18 -69 -22 -98 -28 -190 l-6 -90 -61 -65
c-164 -175 -281 -415 -312 -635 -3 -22 -7 -51 -10 -65 -5 -31 -6 -208 0 -235
2 -11 7 -45 10 -76 6 -51 5 -56 -16 -68 -13 -7 -38 -32 -57 -56 -104 -131 -97
-309 16 -428 52 -55 124 -89 218 -102 11 -1 22 -3 25 -4 3 0 5 -139 5 -309 1
-271 3 -311 18 -339 24 -46 64 -83 111 -104 44 -19 72 -21 200 -19 26 1 50 -1
52 -2 2 -2 6 -24 8 -49 5 -40 11 -96 21 -174 2 -16 6 -57 10 -90 4 -33 8 -71
10 -85 3 -22 11 -85 20 -170 10 -89 16 -134 20 -167 3 -21 7 -63 10 -93 3 -30
8 -73 12 -95 3 -22 7 -58 9 -80 2 -22 5 -53 7 -70 3 -16 8 -59 12 -95 3 -36 8
-76 10 -90 5 -31 14 -112 20 -165 2 -22 6 -58 9 -80 3 -22 8 -65 11 -95 3 -30
8 -66 10 -80 2 -14 6 -47 9 -75 10 -91 18 -170 22 -195 1 -14 5 -47 8 -75 3
-27 8 -68 11 -90 2 -22 7 -62 10 -90 23 -205 26 -218 83 -277 l36 -38 687 0
687 0 39 39 c43 43 59 84 68 176 3 33 10 84 15 113 5 29 9 56 8 60 -2 7 9 108
17 162 2 14 7 50 10 80 3 30 7 71 10 90 3 19 7 58 10 85 3 28 8 68 11 90 2 22
7 60 9 85 6 51 15 123 20 160 2 14 6 54 10 90 4 36 9 76 10 90 2 14 6 52 10
85 3 33 8 71 10 85 2 14 7 54 10 90 4 36 8 72 10 80 2 8 6 49 10 90 4 41 9 84
11 95 2 11 6 45 9 75 3 30 8 71 11 90 3 19 7 51 9 70 13 132 16 158 19 175 2
11 7 52 12 90 4 39 8 75 9 80 1 6 3 29 3 52 2 42 2 42 40 41 20 0 40 0 45 1 4
1 35 2 69 3 74 0 114 13 163 52 42 33 62 69 71 123 9 52 9 377 0 391 -4 7 -4
12 1 12 4 0 8 44 8 97 l0 97 40 4 c39 3 145 48 175 74 35 30 88 106 100 142
12 36 17 152 8 186 -9 38 -34 88 -60 120 l-27 35 29 93 c16 50 31 107 34 125
3 17 8 43 10 56 32 152 25 360 -16 506 -6 22 -13 48 -15 58 -11 62 -115 268
-176 349 -23 31 -53 71 -67 89 -37 50 -235 248 -310 311 -67 56 -228 176 -385
288 -49 35 -96 70 -103 77 -7 7 -26 20 -42 30 -17 9 -30 21 -30 25 0 4 -7 8
-15 8 -7 0 -18 6 -22 13 -4 7 -21 21 -36 30 -63 41 -227 225 -227 256 0 5 -4
11 -8 13 -19 7 -96 195 -108 263 -3 16 -9 48 -14 70 -13 60 -9 251 7 320 8 33
16 69 19 80 6 28 -13 79 -37 101 -21 19 -94 27 -119 13z m-84 -402 c1 -67 6
-147 13 -178 6 -30 14 -69 17 -85 13 -71 138 -342 174 -374 3 -3 23 -27 44
-54 42 -52 177 -186 187 -186 4 0 22 -13 40 -30 19 -16 37 -30 41 -30 4 0 13
-6 20 -13 7 -7 58 -44 113 -82 108 -74 375 -273 440 -327 60 -50 216 -207 255
-257 19 -24 41 -49 48 -56 6 -8 12 -16 12 -18 0 -3 16 -29 36 -58 67 -99 129
-254 151 -379 9 -55 10 -269 1 -330 -6 -38 -25 -114 -54 -208 l-7 -23 -386 5
c-212 3 -402 7 -421 10 -19 2 -60 7 -90 10 -134 14 -204 23 -305 42 -44 8 -93
17 -110 20 -16 3 -73 17 -125 30 -52 14 -106 27 -120 30 -13 3 -30 10 -37 16
-7 6 -13 8 -13 4 0 -7 -83 22 -215 77 -316 130 -545 325 -654 559 -53 110 -69
190 -67 324 1 65 5 136 9 157 13 67 84 236 108 257 3 3 10 12 15 22 15 28 106
128 116 128 5 0 7 -4 4 -8 -2 -4 1 -21 9 -37 54 -120 70 -153 100 -199 61 -95
168 -200 310 -304 63 -46 287 -164 385 -202 30 -12 69 -27 85 -35 17 -7 57
-23 90 -35 33 -13 69 -26 80 -31 79 -33 142 -54 153 -53 6 1 19 2 27 3 27 2
74 55 79 88 8 58 -26 92 -134 135 -85 33 -110 42 -145 53 -5 2 -39 15 -75 30
-406 168 -611 319 -718 530 -27 55 -53 127 -58 165 -1 8 -5 31 -9 50 -9 44
-10 159 -2 226 14 107 79 289 129 359 68 94 136 169 200 217 20 15 42 34 50
41 28 27 179 124 198 126 3 1 5 -54 6 -122z m-1161 -1932 c16 -41 33 -75 37
-75 5 0 8 -7 8 -15 0 -9 4 -21 10 -28 5 -7 36 -48 69 -92 93 -126 243 -265
359 -332 26 -15 49 -30 52 -33 13 -14 153 -85 260 -132 62 -28 164 -65 225
-83 33 -9 69 -20 80 -25 21 -8 115 -31 150 -36 11 -2 50 -10 86 -18 84 -19
113 -24 169 -32 25 -3 52 -7 60 -9 8 -2 42 -7 75 -10 33 -3 76 -8 95 -11 72
-11 155 -14 535 -19 215 -3 399 -8 411 -10 72 -15 109 -120 63 -179 -37 -47
-52 -50 -259 -52 -107 -1 -203 -2 -213 -3 -10 -1 -32 -14 -48 -30 -41 -41 -41
-101 0 -142 30 -29 35 -30 141 -32 l55 -1 5 -216 c3 -118 3 -245 2 -282 l-4
-68 -1239 0 -1239 0 0 95 c-1 52 -1 151 -1 220 0 69 0 153 1 188 l0 63 953 -1
c523 0 964 3 978 8 90 28 98 144 14 190 -14 8 -335 11 -1116 12 l-1095 0 -31
25 c-69 56 -57 156 24 199 13 7 78 11 167 11 91 0 146 4 146 10 0 6 6 10 13
10 8 0 22 15 32 33 25 47 14 100 -26 130 -27 19 -43 22 -135 23 -57 0 -106 3
-109 6 -17 16 -24 205 -12 303 13 108 43 212 90 315 23 50 118 200 127 200 3
0 18 -34 35 -75z m597 -2175 c49 1 54 1 143 1 84 0 84 0 189 -2 l90 -1 -152
-151 -153 -150 -152 152 -152 153 58 -4 c32 -3 60 -1 63 4 3 4 9 6 14 3 5 -3
29 -5 52 -5z m960 0 c49 1 54 1 143 1 225 0 256 -3 243 -18 -8 -10 -184 -185
-283 -281 -5 -5 -295 280 -295 289 0 4 29 7 65 6 36 -1 65 2 65 6 0 5 4 6 10
2 5 -3 29 -5 52 -5z m-197 -302 l149 -147 -161 -159 -160 -159 -162 160 -162
160 158 157 c127 125 161 154 173 146 8 -6 82 -77 165 -158z m641 -10 c-3 -35
-8 -74 -10 -88 -3 -14 -7 -54 -11 -90 -9 -93 -11 -105 -23 -103 -6 1 -42 35
-81 75 l-70 73 97 96 c53 54 98 98 100 98 2 1 1 -27 -2 -61z m-1120 -447 l156
-154 -160 -160 -160 -160 -135 134 c-127 126 -136 137 -141 179 l-5 45 137
137 c75 76 140 137 144 135 4 -1 77 -71 164 -156z m920 27 l136 -133 -5 -47
c-4 -54 -16 -68 -172 -220 l-100 -97 -158 155 c-86 85 -157 158 -157 162 0 9
302 311 313 311 4 1 68 -59 143 -131z m-454 -488 l163 -159 -161 -159 -161
-159 -162 158 -162 158 158 159 c87 88 159 160 161 161 1 0 75 -71 164 -159z
m-815 -124 l36 -34 -32 -31 c-17 -17 -33 -31 -34 -31 -2 0 -3 10 -3 23 -1 12
-4 41 -7 65 -4 23 -4 42 -1 42 3 0 21 -15 41 -34z m1347 -18 c-3 -29 -6 -59
-7 -66 0 -7 -13 -1 -31 15 -17 16 -32 29 -34 29 -5 2 63 72 71 73 4 1 5 -23 1
-51z m-979 -347 c96 -96 175 -178 175 -183 0 -4 -117 -8 -260 -8 l-260 0 -1
23 c0 12 -2 29 -3 37 -2 8 -6 42 -10 75 l-6 59 87 88 c48 49 91 87 95 86 5 -2
87 -81 183 -177z m854 88 c50 -50 88 -95 85 -100 -3 -5 -7 -37 -10 -71 -3 -35
-6 -72 -8 -83 -3 -19 -11 -20 -257 -21 -140 0 -259 1 -264 3 -6 2 52 65 128
141 77 75 158 156 181 179 23 23 44 43 47 43 4 0 48 -41 98 -91z m36 -509 c0
-14 -2 -29 -4 -34 -2 -5 -6 -32 -8 -60 -2 -28 -5 -60 -7 -71 -2 -11 -4 -26 -5
-32 -1 -10 -124 -13 -581 -13 l-580 0 -2 33 c0 17 -3 43 -5 57 -2 14 -6 52 -9
85 l-6 60 604 0 603 0 0 -25z"/>
<path d="M4517 2204 c-1 -2 -36 -6 -77 -9 -41 -3 -82 -8 -90 -10 -8 -2 -35 -7
-60 -10 -219 -31 -489 -134 -625 -238 -51 -39 -132 -120 -171 -172 -30 -38
-95 -157 -110 -200 -73 -206 -63 -468 24 -635 57 -111 135 -195 254 -276 110
-75 246 -140 358 -170 14 -4 169 -41 200 -48 31 -7 86 -16 130 -21 135 -15
191 -18 355 -18 213 -1 319 7 460 33 93 18 100 19 125 25 14 3 34 8 45 10 11
3 40 11 65 18 l45 13 0 54 c1 30 -3 65 -7 78 -4 12 -4 22 0 22 4 0 5 27 2 60
-7 73 1 91 24 55 44 -67 169 -166 286 -225 83 -42 328 -117 390 -118 8 -1 29
-3 45 -6 65 -12 167 -17 325 -18 203 -1 268 6 485 47 138 26 336 106 397 159
24 21 27 32 33 122 4 55 9 122 11 149 2 28 6 76 8 108 3 32 9 64 15 70 10 13
20 136 26 337 3 113 1 147 -16 210 -33 121 -103 245 -181 320 -74 70 -96 90
-103 90 -4 0 -19 9 -33 19 -59 41 -203 104 -292 127 -148 38 -240 49 -400 47
-110 0 -238 -9 -270 -18 -8 -3 -33 -7 -55 -11 -22 -3 -43 -8 -46 -10 -4 -2
-24 -6 -45 -10 -57 -9 -213 -69 -285 -110 -77 -43 -159 -103 -159 -115 0 -5
-5 -9 -10 -9 -6 0 -29 -19 -51 -42 l-40 -43 6 85 c4 47 8 102 9 122 2 37 -5
61 -18 58 -3 -1 -57 10 -119 24 -112 26 -142 32 -207 42 -19 2 -48 7 -64 10
-15 4 -49 7 -75 9 -25 2 -76 6 -111 10 -61 7 -397 14 -403 9z m328 -288 c80
-5 184 -15 214 -21 9 -1 41 -6 71 -11 30 -4 57 -8 60 -9 19 -2 26 -19 23 -52
-2 -21 -5 -56 -7 -78 -2 -38 -4 -40 -32 -37 -38 3 -276 14 -289 13 -5 0 -35
-3 -65 -5 -115 -8 -179 -17 -282 -42 -10 -2 -26 -6 -36 -8 -55 -12 -158 -73
-207 -122 -120 -121 -133 -311 -33 -469 66 -104 236 -189 418 -210 54 -6 261
-6 330 0 47 4 123 7 135 6 10 -1 14 -145 4 -155 -3 -3 -30 -8 -60 -12 -29 -3
-56 -8 -60 -10 -11 -6 -218 -17 -319 -17 -213 1 -388 22 -541 63 -41 11 -85
23 -98 26 -84 18 -253 111 -325 180 -104 98 -146 243 -122 414 7 50 35 142 46
150 3 3 12 19 18 35 18 43 108 137 175 184 87 59 288 136 411 156 17 3 56 10
86 15 30 5 84 12 119 14 35 3 65 7 66 8 5 4 207 0 300 -6z m1746 0 c152 -10
320 -65 423 -136 54 -37 113 -98 129 -132 6 -16 15 -28 18 -28 5 0 20 -42 37
-100 5 -20 10 -162 5 -175 -2 -8 -231 -12 -309 -6 -7 1 -11 24 -12 59 -2 173
-30 262 -105 334 -69 66 -136 91 -256 93 -108 3 -172 -14 -245 -64 -69 -47
-147 -155 -162 -222 -2 -11 -6 -29 -9 -41 -3 -13 -8 -39 -11 -58 -11 -71 -13
-80 -19 -90 -3 -5 -15 -10 -26 -10 -22 0 -22 -2 -10 -44 5 -17 15 -51 21 -76
7 -25 17 -58 22 -75 66 -201 250 -325 518 -350 107 -10 230 -6 315 11 11 2 34
7 50 9 30 6 164 44 177 52 4 2 7 -15 6 -37 0 -34 -5 -43 -27 -54 -27 -15 -208
-61 -276 -71 -22 -3 -47 -7 -55 -10 -51 -14 -270 -20 -435 -11 -80 4 -207 19
-225 26 -3 1 -8 2 -12 1 -4 0 -48 13 -98 30 -199 65 -283 120 -355 234 -55 85
-70 144 -69 275 1 63 4 129 7 145 14 67 16 76 24 88 4 6 8 18 9 24 5 30 76
142 116 181 128 128 348 213 585 227 48 3 88 7 89 8 4 3 59 1 165 -7z m-1456
-490 c103 -12 180 -31 178 -43 -2 -7 -3 -53 -4 -102 -1 -96 -4 -100 -59 -106
-66 -8 -132 -17 -151 -21 -13 -2 -103 -6 -199 -8 -274 -5 -383 26 -415 120
-17 49 -3 79 44 103 66 34 123 47 231 57 36 3 66 7 67 8 5 5 255 -2 308 -8z"/>
</g>
</svg>
