<svg width="320" height="50" viewBox="0 0 320 50" fill="none" xmlns="http://www.w3.org/2000/svg">
<g id="&#208;&#186;&#209;&#128;&#208;&#176;&#208;&#191;&#208;&#186;&#208;&#184;">
<g id="Group 134">
<g id="Group 124">
<g id="Group 93">
<ellipse id="Ellipse 58" cx="241.993" cy="46.2757" rx="2.60019" ry="2.77865" fill="#F8D24E"/>
<ellipse id="Ellipse 59" cx="247.628" cy="42.5708" rx="2.60019" ry="2.77865" fill="#F8D24E"/>
<ellipse id="Ellipse 60" cx="254.126" cy="38.4026" rx="2.60019" ry="2.77865" fill="#F8D24E"/>
<ellipse id="Ellipse 61" cx="260.195" cy="34.6976" rx="2.60019" ry="2.77865" fill="#F8D24E"/>
</g>
<g id="Group 106">
<ellipse id="Ellipse 58_2" cx="256.726" cy="44.4233" rx="2.60019" ry="2.77865" fill="#F8D24E"/>
<ellipse id="Ellipse 59_2" cx="262.361" cy="40.7185" rx="2.60019" ry="2.77865" fill="#F8D24E"/>
<ellipse id="Ellipse 60_2" cx="268.86" cy="36.5505" rx="2.60019" ry="2.77865" fill="#F8D24E"/>
<ellipse id="Ellipse 61_2" cx="274.929" cy="32.8459" rx="2.60019" ry="2.77865" fill="#F8D24E"/>
</g>
<g id="Group 109">
<ellipse id="Ellipse 58_3" cx="269.296" cy="43.0343" rx="2.60019" ry="2.77865" fill="#F8D24E"/>
<ellipse id="Ellipse 59_3" cx="274.93" cy="39.3289" rx="2.60019" ry="2.77865" fill="#F8D24E"/>
<ellipse id="Ellipse 60_3" cx="281.43" cy="35.1611" rx="2.60019" ry="2.77865" fill="#F8D24E"/>
<ellipse id="Ellipse 61_3" cx="287.496" cy="31.4569" rx="2.60019" ry="2.77865" fill="#F8D24E"/>
</g>
<g id="Group 110">
<ellipse id="Ellipse 58_4" cx="281.428" cy="41.182" rx="2.60019" ry="2.77865" fill="#F8D24E"/>
<ellipse id="Ellipse 59_4" cx="287.061" cy="37.4768" rx="2.60019" ry="2.77865" fill="#F8D24E"/>
<ellipse id="Ellipse 60_4" cx="293.561" cy="33.3089" rx="2.60019" ry="2.77865" fill="#F8D24E"/>
<ellipse id="Ellipse 61_4" cx="299.629" cy="29.6041" rx="2.60019" ry="2.77865" fill="#F8D24E"/>
</g>
<g id="Group 111">
<ellipse id="Ellipse 58_5" cx="285.331" cy="46.2757" rx="2.60019" ry="2.77865" fill="#F8D24E"/>
<ellipse id="Ellipse 59_5" cx="290.965" cy="42.5708" rx="2.60019" ry="2.77865" fill="#F8D24E"/>
<ellipse id="Ellipse 62" cx="298.765" cy="46.7387" rx="2.60019" ry="2.77865" fill="#F8D24E"/>
<ellipse id="Ellipse 60_5" cx="297.465" cy="38.4026" rx="2.60019" ry="2.77865" fill="#F8D24E"/>
<ellipse id="Ellipse 63" cx="305.266" cy="42.5708" rx="2.60019" ry="2.77865" fill="#F8D24E"/>
<ellipse id="Ellipse 65" cx="311.334" cy="46.7387" rx="2.60019" ry="2.77865" fill="#F8D24E"/>
<ellipse id="Ellipse 61_5" cx="303.533" cy="34.6976" rx="2.60019" ry="2.77865" fill="#F8D24E"/>
<ellipse id="Ellipse 64" cx="311.334" cy="38.8654" rx="2.60019" ry="2.77865" fill="#F8D24E"/>
<ellipse id="Ellipse 66" cx="317.401" cy="43.0338" rx="2.60019" ry="2.77865" fill="#F8D24E"/>
</g>
<g id="Group 107">
<ellipse id="Ellipse 58_6" cx="215.559" cy="15.7111" rx="2.60019" ry="2.77865" fill="#F8D24E"/>
<ellipse id="Ellipse 59_6" cx="221.192" cy="12.0058" rx="2.60019" ry="2.77865" fill="#F8D24E"/>
<ellipse id="Ellipse 60_6" cx="227.694" cy="7.83822" rx="2.60019" ry="2.77865" fill="#F8D24E"/>
<ellipse id="Ellipse 61_6" cx="233.759" cy="4.13339" rx="2.60019" ry="2.77865" fill="#F8D24E"/>
</g>
<g id="Group 108">
<ellipse id="Ellipse 58_7" cx="204.724" cy="15.247" rx="2.60019" ry="2.77865" fill="#F8D24E"/>
<ellipse id="Ellipse 59_7" cx="210.357" cy="11.5424" rx="2.60019" ry="2.77865" fill="#F8D24E"/>
<ellipse id="Ellipse 60_7" cx="216.857" cy="7.37485" rx="2.60019" ry="2.77865" fill="#F8D24E"/>
<ellipse id="Ellipse 61_7" cx="222.924" cy="3.67001" rx="2.60019" ry="2.77865" fill="#F8D24E"/>
</g>
<g id="Group 94">
<ellipse id="Ellipse 58_8" cx="228.992" cy="46.2757" rx="2.60019" ry="2.77865" fill="#F8D24E"/>
<ellipse id="Ellipse 59_8" cx="234.625" cy="42.5708" rx="2.60019" ry="2.77865" fill="#F8D24E"/>
<ellipse id="Ellipse 60_8" cx="241.125" cy="38.4026" rx="2.60019" ry="2.77865" fill="#F8D24E"/>
<ellipse id="Ellipse 61_8" cx="247.193" cy="34.6976" rx="2.60019" ry="2.77865" fill="#F8D24E"/>
</g>
<g id="Group 95">
<ellipse id="Ellipse 58_9" cx="222.058" cy="43.4975" rx="2.60019" ry="2.77865" fill="#F8D24E"/>
<ellipse id="Ellipse 59_9" cx="227.692" cy="39.7926" rx="2.60019" ry="2.77865" fill="#F8D24E"/>
<ellipse id="Ellipse 60_9" cx="234.192" cy="35.6244" rx="2.60019" ry="2.77865" fill="#F8D24E"/>
<ellipse id="Ellipse 61_9" cx="240.259" cy="31.9196" rx="2.60019" ry="2.77865" fill="#F8D24E"/>
</g>
<g id="Group 96">
<ellipse id="Ellipse 58_10" cx="224.659" cy="33.7721" rx="2.60019" ry="2.77865" fill="#F8D24E"/>
<ellipse id="Ellipse 59_10" cx="230.292" cy="30.0672" rx="2.60019" ry="2.77865" fill="#F8D24E"/>
<ellipse id="Ellipse 60_10" cx="236.794" cy="25.899" rx="2.60019" ry="2.77865" fill="#F8D24E"/>
<ellipse id="Ellipse 61_10" cx="242.86" cy="22.1944" rx="2.60019" ry="2.77865" fill="#F8D24E"/>
</g>
<g id="Group 98">
<ellipse id="Ellipse 58_11" cx="224.659" cy="17.5631" rx="2.60019" ry="2.77865" fill="#F8D24E"/>
<ellipse id="Ellipse 59_11" cx="230.292" cy="13.8579" rx="2.60019" ry="2.77865" fill="#F8D24E"/>
<ellipse id="Ellipse 60_11" cx="236.794" cy="9.69015" rx="2.60019" ry="2.77865" fill="#F8D24E"/>
<ellipse id="Ellipse 61_11" cx="242.86" cy="5.9852" rx="2.60019" ry="2.77865" fill="#F8D24E"/>
</g>
<g id="Group 99">
<ellipse id="Ellipse 58_12" cx="223.358" cy="26.3628" rx="2.60019" ry="2.77865" fill="#F8D24E"/>
<ellipse id="Ellipse 59_12" cx="228.993" cy="22.6573" rx="2.60019" ry="2.77865" fill="#F8D24E"/>
<ellipse id="Ellipse 60_12" cx="235.492" cy="18.4896" rx="2.60019" ry="2.77865" fill="#F8D24E"/>
<ellipse id="Ellipse 61_12" cx="241.559" cy="14.7849" rx="2.60019" ry="2.77865" fill="#F8D24E"/>
</g>
<g id="Group 100">
<ellipse id="Ellipse 58_13" cx="196.056" cy="12.9317" rx="2.60019" ry="2.77865" fill="#F8D24E"/>
<ellipse id="Ellipse 59_13" cx="201.691" cy="9.22677" rx="2.60019" ry="2.77865" fill="#F8D24E"/>
<ellipse id="Ellipse 60_13" cx="208.191" cy="5.05917" rx="2.60019" ry="2.77865" fill="#F8D24E"/>
<path id="Ellipse 61_13" d="M207.757 15.7104C209.193 15.7104 210.358 14.4663 210.358 12.9317C210.358 11.3971 209.193 10.1531 207.757 10.1531C206.321 10.1531 205.157 11.3971 205.157 12.9317C205.157 14.4663 206.321 15.7104 207.757 15.7104Z" fill="#F8D24E"/>
</g>
</g>
<g id="&#209;&#130;&#208;&#190;&#209;&#135;&#208;&#186;&#208;&#184;">
<g id="Group 97">
<ellipse id="Ellipse 58_14" cx="2.64285" cy="2.81563" rx="2.64285" ry="2.81563" transform="matrix(0.986896 -0.161679 0.142011 0.989912 82.5732 31.6222)" fill="#F8D24E"/>
<ellipse id="Ellipse 59_14" cx="2.64285" cy="2.81563" rx="2.64285" ry="2.81563" transform="matrix(0.986896 -0.161679 0.142011 0.989912 87.6914 26.9792)" fill="#F8D24E"/>
<ellipse id="Ellipse 60_14" cx="2.64285" cy="2.81563" rx="2.64285" ry="2.81563" transform="matrix(0.986896 -0.161679 0.142011 0.989912 93.6123 21.7306)" fill="#F8D24E"/>
<ellipse id="Ellipse 61_14" cx="2.64285" cy="2.81563" rx="2.64285" ry="2.81563" transform="matrix(0.986896 -0.161679 0.142011 0.989912 99.165 17.0173)" fill="#F8D24E"/>
</g>
<g id="Group 67">
<ellipse id="Ellipse 58_15" cx="2.71977" cy="33.5514" rx="2.71977" ry="2.81979" fill="#F8D24E"/>
<ellipse id="Ellipse 59_15" cx="8.61137" cy="29.7916" rx="2.71977" ry="2.81979" fill="#F8D24E"/>
<ellipse id="Ellipse 60_15" cx="15.4131" cy="25.562" rx="2.71977" ry="2.81979" fill="#F8D24E"/>
<ellipse id="Ellipse 61_15" cx="21.7579" cy="21.8017" rx="2.71977" ry="2.81979" fill="#F8D24E"/>
</g>
<g id="Group 68">
<ellipse id="Ellipse 58_16" cx="5.44047" cy="40.6005" rx="2.71977" ry="2.81979" fill="#F8D24E"/>
<ellipse id="Ellipse 59_16" cx="11.3331" cy="36.8408" rx="2.71977" ry="2.81979" fill="#F8D24E"/>
<ellipse id="Ellipse 60_16" cx="18.1338" cy="32.611" rx="2.71977" ry="2.81979" fill="#F8D24E"/>
<ellipse id="Ellipse 61_16" cx="24.4786" cy="28.8513" rx="2.71977" ry="2.81979" fill="#F8D24E"/>
</g>
<g id="Group 69">
<ellipse id="Ellipse 58_17" cx="12.2383" cy="44.3598" rx="2.71977" ry="2.81979" fill="#F8D24E"/>
<ellipse id="Ellipse 59_17" cx="18.1319" cy="40.6004" rx="2.71977" ry="2.81979" fill="#F8D24E"/>
<ellipse id="Ellipse 60_17" cx="24.9307" cy="36.3707" rx="2.71977" ry="2.81979" fill="#F8D24E"/>
<ellipse id="Ellipse 61_17" cx="31.2764" cy="32.611" rx="2.71977" ry="2.81979" fill="#F8D24E"/>
</g>
<g id="Group 70">
<ellipse id="Ellipse 58_18" cx="19.9434" cy="46.7105" rx="2.71977" ry="2.81979" fill="#F8D24E"/>
<ellipse id="Ellipse 59_18" cx="25.836" cy="42.95" rx="2.71977" ry="2.81979" fill="#F8D24E"/>
<ellipse id="Ellipse 60_18" cx="32.6377" cy="38.7208" rx="2.71977" ry="2.81979" fill="#F8D24E"/>
<ellipse id="Ellipse 61_18" cx="38.9815" cy="34.961" rx="2.71977" ry="2.81979" fill="#F8D24E"/>
</g>
<g id="Group 71">
<ellipse id="Ellipse 58_19" cx="29.917" cy="47.1805" rx="2.71977" ry="2.81979" fill="#F8D24E"/>
<ellipse id="Ellipse 59_19" cx="35.8096" cy="43.4207" rx="2.71977" ry="2.81979" fill="#F8D24E"/>
<ellipse id="Ellipse 60_19" cx="42.6104" cy="39.1908" rx="2.71977" ry="2.81979" fill="#F8D24E"/>
<ellipse id="Ellipse 61_19" cx="48.9551" cy="35.4315" rx="2.71977" ry="2.81979" fill="#F8D24E"/>
</g>
<g id="Group 72">
<ellipse id="Ellipse 58_20" cx="41.7041" cy="47.1803" rx="2.71977" ry="2.81979" fill="#F8D24E"/>
<ellipse id="Ellipse 59_20" cx="47.5957" cy="43.4205" rx="2.71977" ry="2.81979" fill="#F8D24E"/>
<ellipse id="Ellipse 60_20" cx="54.3956" cy="39.1905" rx="2.71977" ry="2.81979" fill="#F8D24E"/>
<ellipse id="Ellipse 61_20" cx="60.7422" cy="35.4312" rx="2.71977" ry="2.81979" fill="#F8D24E"/>
</g>
<g id="Group 73">
<ellipse id="Ellipse 58_21" cx="51.6739" cy="46.7103" rx="2.71977" ry="2.81979" fill="#F8D24E"/>
<ellipse id="Ellipse 59_21" cx="57.5665" cy="42.95" rx="2.71977" ry="2.81979" fill="#F8D24E"/>
<ellipse id="Ellipse 60_21" cx="64.3672" cy="38.7208" rx="2.71977" ry="2.81979" fill="#F8D24E"/>
<ellipse id="Ellipse 61_21" cx="70.712" cy="34.961" rx="2.71977" ry="2.81979" fill="#F8D24E"/>
</g>
<g id="Group 74">
<ellipse id="Ellipse 58_22" cx="63.0059" cy="46.24" rx="2.71977" ry="2.81979" fill="#F8D24E"/>
<ellipse id="Ellipse 59_22" cx="68.8985" cy="42.4804" rx="2.71977" ry="2.81979" fill="#F8D24E"/>
<ellipse id="Ellipse 60_22" cx="75.6993" cy="38.2509" rx="2.71977" ry="2.81979" fill="#F8D24E"/>
<ellipse id="Ellipse 61_22" cx="82.044" cy="34.4909" rx="2.71977" ry="2.81979" fill="#F8D24E"/>
</g>
<g id="Group 75">
<ellipse id="Ellipse 58_23" cx="73.4317" cy="34.0211" rx="2.71977" ry="2.81979" fill="#F8D24E"/>
<ellipse id="Ellipse 59_23" cx="79.3243" cy="30.2614" rx="2.71977" ry="2.81979" fill="#F8D24E"/>
<ellipse id="Ellipse 60_23" cx="86.1241" cy="26.0317" rx="2.71977" ry="2.81979" fill="#F8D24E"/>
<ellipse id="Ellipse 61_23" cx="92.4698" cy="22.2717" rx="2.71977" ry="2.81979" fill="#F8D24E"/>
</g>
</g>
</g>
</g>
</svg>
