<svg width="768" height="69" viewBox="0 0 768 69" fill="none" xmlns="http://www.w3.org/2000/svg">
<g id="&#208;&#186;&#209;&#128;&#208;&#176;&#208;&#191;&#208;&#186;&#208;&#184;">
<g id="Group 125">
<g id="Group 93">
<ellipse id="Ellipse 58" cx="655.854" cy="63.7614" rx="4.00522" ry="3.98792" fill="#F8D24E"/>
<ellipse id="Ellipse 59" cx="663.865" cy="58.7765" rx="4.00522" ry="3.98792" fill="#F8D24E"/>
<ellipse id="Ellipse 60" cx="673.877" cy="52.7946" rx="4.00522" ry="3.98792" fill="#F8D24E"/>
<ellipse id="Ellipse 61" cx="681.888" cy="47.8097" rx="4.00522" ry="3.98792" fill="#F8D24E"/>
</g>
<g id="Group 106">
<ellipse id="Ellipse 58_2" cx="676.881" cy="61.7675" rx="4.00522" ry="3.98792" fill="#F8D24E"/>
<ellipse id="Ellipse 59_2" cx="684.892" cy="56.7826" rx="4.00522" ry="3.98792" fill="#F8D24E"/>
<ellipse id="Ellipse 60_2" cx="694.905" cy="50.8007" rx="4.00522" ry="3.98792" fill="#F8D24E"/>
<ellipse id="Ellipse 61_2" cx="702.915" cy="45.8158" rx="4.00522" ry="3.98792" fill="#F8D24E"/>
</g>
<g id="Group 109">
<ellipse id="Ellipse 58_3" cx="694.905" cy="59.7733" rx="4.00522" ry="3.98792" fill="#F8D24E"/>
<ellipse id="Ellipse 59_3" cx="702.915" cy="54.7885" rx="4.00522" ry="3.98792" fill="#F8D24E"/>
<ellipse id="Ellipse 60_3" cx="712.928" cy="48.8065" rx="4.00522" ry="3.98792" fill="#F8D24E"/>
<ellipse id="Ellipse 61_3" cx="720.939" cy="43.8217" rx="4.00522" ry="3.98792" fill="#F8D24E"/>
</g>
<g id="Group 110">
<ellipse id="Ellipse 58_4" cx="712.928" cy="56.7826" rx="4.00522" ry="3.98792" fill="#F8D24E"/>
<ellipse id="Ellipse 59_4" cx="720.939" cy="51.7977" rx="4.00522" ry="3.98792" fill="#F8D24E"/>
<ellipse id="Ellipse 60_4" cx="730.952" cy="45.8158" rx="4.00522" ry="3.98792" fill="#F8D24E"/>
<ellipse id="Ellipse 61_4" cx="738.962" cy="40.8309" rx="4.00522" ry="3.98792" fill="#F8D24E"/>
</g>
<g id="Group 111">
<ellipse id="Ellipse 58_5" cx="717.935" cy="63.7614" rx="4.00522" ry="3.98792" fill="#F8D24E"/>
<ellipse id="Ellipse 59_5" cx="725.945" cy="58.7765" rx="4.00522" ry="3.98792" fill="#F8D24E"/>
<ellipse id="Ellipse 62" cx="736.96" cy="64.7584" rx="4.00522" ry="3.98792" fill="#F8D24E"/>
<ellipse id="Ellipse 60_5" cx="735.958" cy="52.7946" rx="4.00522" ry="3.98792" fill="#F8D24E"/>
<ellipse id="Ellipse 63" cx="746.972" cy="58.7765" rx="4.00522" ry="3.98792" fill="#F8D24E"/>
<ellipse id="Ellipse 65" cx="755.984" cy="64.7584" rx="4.00522" ry="3.98792" fill="#F8D24E"/>
<ellipse id="Ellipse 61_5" cx="743.969" cy="47.8097" rx="4.00522" ry="3.98792" fill="#F8D24E"/>
<ellipse id="Ellipse 64" cx="755.984" cy="53.7916" rx="4.00522" ry="3.98792" fill="#F8D24E"/>
<ellipse id="Ellipse 66" cx="763.995" cy="59.7736" rx="4.00522" ry="3.98792" fill="#F8D24E"/>
</g>
<g id="Group 107">
<ellipse id="Ellipse 58_6" cx="617.805" cy="21.8883" rx="4.00522" ry="3.98792" fill="#F8D24E"/>
<ellipse id="Ellipse 59_6" cx="625.815" cy="16.9034" rx="4.00522" ry="3.98792" fill="#F8D24E"/>
<ellipse id="Ellipse 60_6" cx="635.828" cy="10.9215" rx="4.00522" ry="3.98792" fill="#F8D24E"/>
<ellipse id="Ellipse 61_6" cx="643.838" cy="5.93665" rx="4.00522" ry="3.98792" fill="#F8D24E"/>
</g>
<g id="Group 108">
<ellipse id="Ellipse 58_7" cx="601.784" cy="20.8912" rx="4.00522" ry="3.98792" fill="#F8D24E"/>
<ellipse id="Ellipse 59_7" cx="609.794" cy="15.9064" rx="4.00522" ry="3.98792" fill="#F8D24E"/>
<ellipse id="Ellipse 60_7" cx="619.807" cy="9.92444" rx="4.00522" ry="3.98792" fill="#F8D24E"/>
<ellipse id="Ellipse 61_7" cx="627.818" cy="4.93958" rx="4.00522" ry="3.98792" fill="#F8D24E"/>
</g>
<g id="Group 94">
<ellipse id="Ellipse 58_8" cx="636.829" cy="63.7614" rx="4.00522" ry="3.98792" fill="#F8D24E"/>
<ellipse id="Ellipse 59_8" cx="644.84" cy="58.7765" rx="4.00522" ry="3.98792" fill="#F8D24E"/>
<ellipse id="Ellipse 60_8" cx="654.853" cy="52.7946" rx="4.00522" ry="3.98792" fill="#F8D24E"/>
<ellipse id="Ellipse 61_8" cx="662.863" cy="47.8097" rx="4.00522" ry="3.98792" fill="#F8D24E"/>
</g>
<g id="Group 95">
<ellipse id="Ellipse 58_9" cx="626.816" cy="60.7704" rx="4.00522" ry="3.98792" fill="#F8D24E"/>
<ellipse id="Ellipse 59_9" cx="634.826" cy="55.7855" rx="4.00522" ry="3.98792" fill="#F8D24E"/>
<ellipse id="Ellipse 60_9" cx="644.84" cy="49.8036" rx="4.00522" ry="3.98792" fill="#F8D24E"/>
<ellipse id="Ellipse 61_9" cx="652.85" cy="44.8187" rx="4.00522" ry="3.98792" fill="#F8D24E"/>
</g>
<g id="Group 96">
<ellipse id="Ellipse 58_10" cx="630.822" cy="46.8126" rx="4.00522" ry="3.98792" fill="#F8D24E"/>
<ellipse id="Ellipse 59_10" cx="638.832" cy="41.8278" rx="4.00522" ry="3.98792" fill="#F8D24E"/>
<ellipse id="Ellipse 60_10" cx="648.845" cy="35.8458" rx="4.00522" ry="3.98792" fill="#F8D24E"/>
<ellipse id="Ellipse 61_10" cx="656.855" cy="30.861" rx="4.00522" ry="3.98792" fill="#F8D24E"/>
</g>
<g id="Group 98">
<ellipse id="Ellipse 58_11" cx="630.822" cy="23.8822" rx="4.00522" ry="3.98792" fill="#F8D24E"/>
<ellipse id="Ellipse 59_11" cx="638.832" cy="18.8973" rx="4.00522" ry="3.98792" fill="#F8D24E"/>
<ellipse id="Ellipse 60_11" cx="648.845" cy="12.9154" rx="4.00522" ry="3.98792" fill="#F8D24E"/>
<ellipse id="Ellipse 61_11" cx="656.855" cy="7.93054" rx="4.00522" ry="3.98792" fill="#F8D24E"/>
</g>
<g id="Group 99">
<ellipse id="Ellipse 58_12" cx="628.819" cy="36.8429" rx="4.00522" ry="3.98792" fill="#F8D24E"/>
<ellipse id="Ellipse 59_12" cx="636.829" cy="31.858" rx="4.00522" ry="3.98792" fill="#F8D24E"/>
<ellipse id="Ellipse 60_12" cx="646.842" cy="25.8761" rx="4.00522" ry="3.98792" fill="#F8D24E"/>
<ellipse id="Ellipse 61_12" cx="654.853" cy="20.8912" rx="4.00522" ry="3.98792" fill="#F8D24E"/>
</g>
<g id="Group 100">
<ellipse id="Ellipse 58_13" cx="589.267" cy="17.9003" rx="3.50456" ry="3.98792" fill="#F8D24E"/>
<ellipse id="Ellipse 59_13" cx="597.278" cy="12.9154" rx="3.50456" ry="3.98792" fill="#F8D24E"/>
<ellipse id="Ellipse 60_13" cx="607.291" cy="6.93347" rx="3.50456" ry="3.98792" fill="#F8D24E"/>
<path id="Ellipse 61_13" d="M606.289 21.8882C608.225 21.8882 609.794 20.1027 609.794 17.9003C609.794 15.6978 608.225 13.9124 606.289 13.9124C604.354 13.9124 602.785 15.6978 602.785 17.9003C602.785 20.1027 604.354 21.8882 606.289 21.8882Z" fill="#F8D24E"/>
</g>
</g>
<g id="Group 127">
<g id="Group 84">
<ellipse id="Ellipse 58_14" cx="4.00522" cy="59" rx="4.00522" ry="4" fill="#F8D24E"/>
<ellipse id="Ellipse 59_14" cx="12.0155" cy="54" rx="4.00522" ry="4" fill="#F8D24E"/>
<ellipse id="Ellipse 60_14" cx="22.0287" cy="48" rx="4.00522" ry="4" fill="#F8D24E"/>
<ellipse id="Ellipse 61_14" cx="30.0389" cy="43" rx="4.00522" ry="4" fill="#F8D24E"/>
</g>
<g id="Group 85">
<ellipse id="Ellipse 58_15" cx="52.0677" cy="61" rx="4.00522" ry="4" fill="#F8D24E"/>
<ellipse id="Ellipse 59_15" cx="60.0785" cy="56" rx="4.00522" ry="4" fill="#F8D24E"/>
<ellipse id="Ellipse 60_15" cx="70.0912" cy="50" rx="4.00522" ry="4" fill="#F8D24E"/>
<ellipse id="Ellipse 61_15" cx="78.1019" cy="45" rx="4.00522" ry="4" fill="#F8D24E"/>
</g>
<g id="Group 88">
<ellipse id="Ellipse 58_16" cx="70.592" cy="58" rx="3.50456" ry="4" fill="#F8D24E"/>
<ellipse id="Ellipse 59_16" cx="78.6022" cy="53" rx="3.50456" ry="4" fill="#F8D24E"/>
<ellipse id="Ellipse 60_16" cx="87.6139" cy="48" rx="3.50456" ry="4" fill="#F8D24E"/>
<ellipse id="Ellipse 61_16" cx="96.6257" cy="43" rx="3.50456" ry="4" fill="#F8D24E"/>
<ellipse id="Ellipse 62_2" cx="106.639" cy="35" rx="3.50456" ry="4" fill="#F8D24E"/>
</g>
<g id="Group 89">
<ellipse id="Ellipse 58_17" cx="85.6115" cy="39" rx="3.50456" ry="4" fill="#F8D24E"/>
</g>
<g id="Group 86">
<ellipse id="Ellipse 58_18" cx="34.0443" cy="61" rx="4.00522" ry="4" fill="#F8D24E"/>
<ellipse id="Ellipse 59_17" cx="42.0545" cy="56" rx="4.00522" ry="4" fill="#F8D24E"/>
<ellipse id="Ellipse 60_17" cx="52.0677" cy="50" rx="4.00522" ry="4" fill="#F8D24E"/>
<ellipse id="Ellipse 61_17" cx="60.0785" cy="45" rx="4.00522" ry="4" fill="#F8D24E"/>
</g>
<g id="Group 87">
<ellipse id="Ellipse 58_19" cx="18.0233" cy="60" rx="4.00522" ry="4" fill="#F8D24E"/>
<ellipse id="Ellipse 59_18" cx="26.034" cy="55" rx="4.00522" ry="4" fill="#F8D24E"/>
<ellipse id="Ellipse 60_18" cx="36.0467" cy="49" rx="4.00522" ry="4" fill="#F8D24E"/>
<ellipse id="Ellipse 61_18" cx="44.0575" cy="44" rx="4.00522" ry="4" fill="#F8D24E"/>
</g>
</g>
</g>
</svg>
